<svg xmlns="http://www.w3.org/2000/svg" xmlns:xlink="http://www.w3.org/1999/xlink" width="1890" zoomAndPan="magnify" viewBox="0 0 1417.5 1417.500002" height="1890" preserveAspectRatio="xMidYMid meet" version="1.2"><defs><clipPath id="1eab414e98"><path d="M 0 0 L 1417 0 L 1417 1417 L 0 1417 Z M 0 0 "/></clipPath></defs><g id="409466eae6"><path style=" stroke:none;fill-rule:nonzero;fill:#ffffff;fill-opacity:1;" d="M 0 0 L 1417 0 L 1417 1417 L 0 1417 Z M 0 0 "/><g clip-rule="nonzero" clip-path="url(#1eab414e98)"><path style=" stroke:none;fill-rule:nonzero;fill:#000000;fill-opacity:1;" d="M 0 0 L 1417.175781 0 L 1417.175781 1417.175781 L 0 1417.175781 Z M 0 0 "/></g><g style="fill:#ffffff;fill-opacity:1;"><g transform="translate(352.32069, 938.560656)"><path style="stroke:none" d="M 265.03125 -90.1875 C 284.050781 -90.1875 301.378906 -94.785156 317.015625 -103.984375 C 332.660156 -113.191406 342.9375 -126.382812 347.84375 -143.5625 L 480.359375 -143.5625 C 466.253906 -93.863281 440.179688 -55.363281 402.140625 -28.0625 C 364.109375 -0.757812 318.40625 12.890625 265.03125 12.890625 C 184.050781 12.890625 123.160156 -9.5 82.359375 -54.28125 C 41.566406 -99.070312 21.171875 -165.640625 21.171875 -253.984375 C 21.171875 -302.453125 30.21875 -345.394531 48.3125 -382.8125 C 66.40625 -420.238281 92.9375 -449.535156 127.90625 -470.703125 C 162.875 -491.867188 205.207031 -502.453125 254.90625 -502.453125 C 324.84375 -502.453125 380.820312 -480.054688 422.84375 -435.265625 C 464.875 -390.484375 485.890625 -322.695312 485.890625 -231.90625 L 485.890625 -209.8125 L 150 -209.8125 C 154.289062 -130.0625 192.632812 -90.1875 265.03125 -90.1875 Z M 253.0625 -396.625 C 194.164062 -396.625 161.035156 -362.269531 153.671875 -293.5625 L 353.375 -293.5625 C 350.300781 -325.457031 339.867188 -350.609375 322.078125 -369.015625 C 304.285156 -387.421875 281.28125 -396.625 253.0625 -396.625 Z M 253.0625 -396.625 "/></g></g><g style="fill:#ffffff;fill-opacity:1;"><g transform="translate(808.760903, 938.560656)"><path style="stroke:none" d="M 58.890625 0 L 58.890625 -134.359375 L 196.9375 -134.359375 L 196.9375 0 Z M 58.890625 0 "/></g></g></g></svg>